<svg width="173" height="48" viewBox="0 0 173 48" fill="none" xmlns="http://www.w3.org/2000/svg">
<path d="M0.710227 39L5.53977 9.90909H17.1875C19.3277 9.90909 21.0606 10.2263 22.3864 10.8608C23.7216 11.4953 24.6544 12.3759 25.1847 13.5028C25.715 14.6203 25.857 15.9081 25.6108 17.3665C25.4119 18.5028 25.0095 19.4972 24.4034 20.3494C23.8068 21.2017 23.0682 21.9025 22.1875 22.4517C21.3068 23.0009 20.3504 23.3892 19.3182 23.6165L19.2614 23.9006C20.3598 23.9479 21.3494 24.2604 22.2301 24.8381C23.1108 25.4062 23.7689 26.2112 24.2045 27.2528C24.6402 28.2945 24.7396 29.5303 24.5028 30.9602C24.2472 32.5038 23.6364 33.8816 22.6705 35.0938C21.7045 36.2964 20.4167 37.2481 18.8068 37.9489C17.2064 38.6496 15.3172 39 13.1392 39H0.710227ZM7.71307 33.9716H12.7273C14.4318 33.9716 15.7339 33.6402 16.6335 32.9773C17.5331 32.3144 18.0729 31.4384 18.2528 30.3494C18.3759 29.5445 18.2955 28.8343 18.0114 28.2188C17.7367 27.6032 17.268 27.1203 16.6051 26.7699C15.9517 26.4195 15.1231 26.2443 14.1193 26.2443H8.97727L7.71307 33.9716ZM9.6875 22.0824H14.2472C15.0805 22.0824 15.8523 21.9356 16.5625 21.642C17.2822 21.339 17.8741 20.9129 18.3381 20.3636C18.8116 19.8049 19.1098 19.1468 19.233 18.3892C19.4034 17.3286 19.1667 16.4811 18.5227 15.8466C17.8883 15.2027 16.8939 14.8807 15.5398 14.8807H10.8807L9.6875 22.0824ZM27.0419 39L30.6783 17.1818H36.5447L35.9055 20.9886H36.1328C36.7578 19.6345 37.5959 18.6117 38.647 17.9205C39.7076 17.2197 40.8487 16.8693 42.0703 16.8693C42.3733 16.8693 42.6906 16.8883 43.022 16.9261C43.3629 16.9545 43.666 17.0019 43.9311 17.0682L43.022 22.4517C42.7569 22.357 42.3781 22.2812 41.8857 22.2244C41.4027 22.1581 40.9434 22.125 40.5078 22.125C39.6271 22.125 38.808 22.3191 38.0504 22.7074C37.2929 23.0862 36.6536 23.6165 36.1328 24.2983C35.6214 24.9801 35.2853 25.7661 35.1243 26.6562L33.093 39H27.0419ZM43.4091 39L47.0455 17.1818H53.0966L49.4602 39H43.4091ZM50.696 14.3409C49.7964 14.3409 49.053 14.0426 48.4659 13.446C47.8883 12.84 47.6515 12.1203 47.7557 11.2869C47.8598 10.4347 48.267 9.71496 48.9773 9.12784C49.6875 8.53125 50.4924 8.23295 51.392 8.23295C52.2917 8.23295 53.0256 8.53125 53.5938 9.12784C54.1619 9.71496 54.3987 10.4347 54.304 11.2869C54.2093 12.1203 53.8068 12.84 53.0966 13.446C52.3958 14.0426 51.5956 14.3409 50.696 14.3409ZM75.032 23.4034L69.5348 23.7443C69.5064 23.2614 69.3738 22.8305 69.1371 22.4517C68.9098 22.0634 68.5736 21.7557 68.1286 21.5284C67.6929 21.3011 67.1437 21.1875 66.4808 21.1875C65.4865 21.1875 64.6011 21.4148 63.8246 21.8693C63.0481 22.3239 62.6077 22.9062 62.5036 23.6165C62.4183 24.071 62.5367 24.4545 62.8587 24.767C63.1806 25.0795 63.8293 25.3447 64.8047 25.5625L68.6399 26.358C70.6854 26.7936 72.1626 27.518 73.0717 28.5312C73.9903 29.5445 74.317 30.8703 74.0518 32.5085C73.8151 33.9006 73.2043 35.1174 72.2195 36.1591C71.2346 37.1913 69.9846 37.9962 68.4695 38.5739C66.9543 39.142 65.2734 39.4261 63.4268 39.4261C60.4628 39.4261 58.209 38.8201 56.6655 37.608C55.1219 36.3958 54.3786 34.7528 54.4354 32.679L60.3445 32.3665C60.3918 33.2566 60.7043 33.929 61.282 34.3835C61.8596 34.8286 62.6503 35.0559 63.6541 35.0653C64.781 35.0843 65.7375 34.8523 66.5234 34.3693C67.3189 33.8769 67.7687 33.2803 67.8729 32.5795C67.9486 32.0871 67.8066 31.6894 67.4467 31.3864C67.0964 31.0833 66.4524 30.8324 65.5149 30.6335L61.8786 29.8807C59.8142 29.4545 58.3321 28.6922 57.4325 27.5938C56.5329 26.4953 56.2251 25.0985 56.5092 23.4034C56.7365 22.0492 57.3 20.8892 58.1996 19.9233C59.1087 18.9479 60.2782 18.1998 61.7081 17.679C63.1475 17.1581 64.7715 16.8977 66.5803 16.8977C69.4117 16.8977 71.5424 17.4801 72.9723 18.6449C74.4117 19.8097 75.0982 21.3958 75.032 23.4034ZM83.2884 32.7216L84.4957 25.4631H85.3764L93.7713 17.1818H100.717L89.5241 28.1477H88.0753L83.2884 32.7216ZM76.7685 39L81.598 9.90909H87.6491L82.8196 39H76.7685ZM90.4048 39L85.5753 29.4972L90.3054 25.2216L97.4929 39H90.4048Z" fill="#1F0356"/>
<path d="M104.148 24.5881L104.659 21.5455H118.994L118.483 24.5881H113.139L110.753 39H107.105L109.491 24.5881H104.148ZM135.115 30.5114C134.797 32.375 134.18 33.9574 133.266 35.2585C132.357 36.5597 131.246 37.5483 129.933 38.2244C128.626 38.9006 127.217 39.2386 125.706 39.2386C124.121 39.2386 122.754 38.8778 121.607 38.1562C120.464 37.4347 119.638 36.392 119.126 35.0284C118.615 33.6591 118.518 32.0085 118.837 30.0767C119.143 28.2074 119.754 26.6222 120.669 25.321C121.584 24.0142 122.7 23.0199 124.018 22.3381C125.337 21.6506 126.754 21.3068 128.271 21.3068C129.845 21.3068 131.203 21.6705 132.345 22.3977C133.493 23.125 134.32 24.1761 134.825 25.5511C135.337 26.9205 135.433 28.5739 135.115 30.5114ZM131.442 30.0767C131.641 28.8778 131.632 27.8722 131.416 27.0597C131.206 26.2415 130.82 25.6222 130.257 25.2017C129.695 24.7812 128.984 24.571 128.126 24.571C127.195 24.571 126.339 24.804 125.561 25.2699C124.788 25.7358 124.135 26.4119 123.601 27.2983C123.072 28.179 122.706 29.25 122.501 30.5114C122.297 31.7159 122.303 32.7216 122.518 33.5284C122.74 34.3352 123.135 34.946 123.703 35.3608C124.277 35.7699 124.99 35.9744 125.842 35.9744C126.768 35.9744 127.615 35.7472 128.382 35.2926C129.155 34.8324 129.805 34.1648 130.334 33.2898C130.862 32.4091 131.232 31.3381 131.442 30.0767ZM142.707 39H136.434L139.332 21.5455H145.485C147.241 21.5455 148.698 21.9034 149.857 22.6193C151.022 23.3352 151.843 24.3608 152.32 25.696C152.798 27.0256 152.883 28.6136 152.576 30.4602C152.281 32.2443 151.692 33.7756 150.812 35.054C149.931 36.3267 148.803 37.304 147.428 37.9858C146.053 38.6619 144.479 39 142.707 39ZM140.653 35.8381H142.92C144.016 35.8381 144.977 35.6335 145.8 35.2244C146.63 34.8153 147.309 34.1847 147.837 33.3324C148.371 32.4801 148.749 31.3892 148.971 30.0597C149.181 28.7983 149.167 27.7756 148.928 26.9915C148.695 26.2017 148.244 25.625 147.573 25.2614C146.903 24.892 146.022 24.7074 144.931 24.7074H142.502L140.653 35.8381ZM171.349 30.5114C171.031 32.375 170.415 33.9574 169.5 35.2585C168.591 36.5597 167.48 37.5483 166.168 38.2244C164.861 38.9006 163.452 39.2386 161.94 39.2386C160.355 39.2386 158.989 38.8778 157.841 38.1562C156.699 37.4347 155.872 36.392 155.361 35.0284C154.849 33.6591 154.753 32.0085 155.071 30.0767C155.378 28.2074 155.989 26.6222 156.903 25.321C157.818 24.0142 158.935 23.0199 160.253 22.3381C161.571 21.6506 162.989 21.3068 164.506 21.3068C166.08 21.3068 167.438 21.6705 168.58 22.3977C169.727 23.125 170.554 24.1761 171.06 25.5511C171.571 26.9205 171.668 28.5739 171.349 30.5114ZM167.676 30.0767C167.875 28.8778 167.866 27.8722 167.651 27.0597C167.44 26.2415 167.054 25.6222 166.491 25.2017C165.929 24.7812 165.219 24.571 164.361 24.571C163.429 24.571 162.574 24.804 161.795 25.2699C161.023 25.7358 160.369 26.4119 159.835 27.2983C159.307 28.179 158.94 29.25 158.736 30.5114C158.531 31.7159 158.537 32.7216 158.753 33.5284C158.974 34.3352 159.369 34.946 159.938 35.3608C160.511 35.7699 161.224 35.9744 162.077 35.9744C163.003 35.9744 163.849 35.7472 164.616 35.2926C165.389 34.8324 166.04 34.1648 166.568 33.2898C167.097 32.4091 167.466 31.3381 167.676 30.0767Z" fill="white"/>
</svg>
